<?xml version="1.0" encoding="UTF-8" standalone="no"?>
<!DOCTYPE svg PUBLIC "-//W3C//DTD SVG 1.1//EN" "http://www.w3.org/Graphics/SVG/1.1/DTD/svg11.dtd">
<svg width="100%" height="100%" viewBox="0 0 2733 293" version="1.1" xmlns="http://www.w3.org/2000/svg" xmlns:xlink="http://www.w3.org/1999/xlink" xml:space="preserve" xmlns:serif="http://www.serif.com/" style="fill-rule:evenodd;clip-rule:evenodd;stroke-linejoin:round;stroke-miterlimit:2;">
    <g>
        <path d="M41.423,42.821c27.615,-26.973 64.575,-40.46 110.878,-40.46c46.304,-0 83.199,13.487 110.686,40.46c27.487,26.973 41.231,61.781 41.231,104.424c-0,42.643 -13.744,77.451 -41.231,104.424c-27.487,26.973 -64.382,40.46 -110.686,40.46c-46.303,-0 -83.263,-13.487 -110.878,-40.46c-27.615,-26.973 -41.423,-61.781 -41.423,-104.424c0,-42.643 13.808,-77.451 41.423,-104.424Zm52.019,164.15c14.514,15.156 34.134,22.734 58.859,22.734c24.726,0 44.249,-7.578 58.571,-22.734c14.321,-15.156 21.482,-35.097 21.482,-59.822c-0,-24.726 -7.161,-44.634 -21.482,-59.727c-14.322,-15.092 -33.845,-22.638 -58.571,-22.638c-24.725,0 -44.312,7.546 -58.762,22.638c-14.45,15.093 -21.675,35.001 -21.675,59.727c-0,24.725 7.193,44.666 21.578,59.822Z" style="fill:#8400ff;fill-rule:nonzero;"/>
        <path d="M599.809,7.178l118.297,-0l94.02,280.134l-72.635,0l-20.037,-61.075l-122.727,0l-20.23,61.075l-70.901,0l94.213,-280.134Zm48.552,59.918l-33.138,101.92l85.543,-0l-33.139,-101.92l-19.266,0Z" style="fill:#8400ff;fill-rule:nonzero;"/>
        <rect x="843.843" y="7.25" width="69.552" height="280.134" style="fill:#8400ff;fill-rule:nonzero;"/>
        <g>
            <path d="M1167.29,3.083c33.163,0 62.119,2.891 86.869,8.672l-0,37.579c-26.945,-3.982 -55.901,-5.974 -86.869,-5.974c-23.774,0 -41.27,2.762 -52.487,8.287c-11.217,5.524 -16.825,15.417 -16.825,29.678c0,13.618 4.45,23.286 13.35,29.003c8.901,5.717 24.08,9.86 45.538,12.43l34.016,4.432c27.676,3.726 48.22,11.563 61.631,23.511c13.411,11.948 20.117,31.155 20.117,57.621c-0,55.244 -39.746,82.866 -119.239,82.866c-37.917,0 -69.617,-3.147 -95.098,-9.443l-0,-37.386c29.261,4.497 61.082,6.745 95.464,6.745c49.988,0 74.981,-13.811 74.981,-41.433c0,-14.775 -4.175,-24.924 -12.527,-30.449c-8.352,-5.524 -23.927,-9.892 -46.726,-13.104l-34.016,-3.854c-24.994,-3.212 -44.837,-10.856 -59.528,-22.933c-14.692,-12.077 -22.037,-31.027 -22.037,-56.85c-0.122,-52.932 37.673,-79.398 113.386,-79.398Z" style="fill:#8400ff;fill-rule:nonzero;"/>
            <path d="M1330.65,116.398c18.654,-19.142 42.977,-28.714 72.97,-28.714c29.992,0 54.224,9.539 72.695,28.618c18.471,19.078 27.707,43.489 27.707,73.231c-0,29.742 -9.236,54.216 -27.707,73.423c-18.471,19.207 -42.703,28.811 -72.695,28.811c-29.993,-0 -54.286,-9.604 -72.879,-28.811c-18.592,-19.207 -27.889,-43.681 -27.889,-73.423c0,-29.742 9.266,-54.12 27.798,-73.135Zm28.895,118.904c10.729,11.819 25.451,17.729 44.166,17.729c18.715,0 33.376,-5.91 43.983,-17.729c10.607,-11.82 15.911,-27.108 15.911,-45.866c-0,-18.372 -5.365,-33.564 -16.094,-45.576c-10.729,-12.013 -25.359,-18.019 -43.891,-18.019c-18.776,0 -33.468,5.942 -44.075,17.826c-10.607,11.884 -15.91,27.173 -15.91,45.866c-0,18.693 5.303,33.949 15.91,45.769Z" style="fill:#8400ff;fill-rule:nonzero;"/>
            <rect x="1542.25" y="0" width="39.685" height="287.334" style="fill:#8400ff;fill-rule:nonzero;"/>
            <path d="M1629.68,91.538l39.868,0l0,105.029c0,18.115 4.237,31.99 12.71,41.625c8.474,9.636 20.819,14.454 37.034,14.454c16.216,-0 29.139,-5.332 38.771,-15.995c9.632,-10.664 14.448,-24.539 14.448,-41.626l-0,-103.487l39.685,0l-0,195.796l-38.222,0l-0.732,-23.704l-3.84,0c-14.509,18.372 -35.236,27.558 -62.18,27.558c-23.531,0 -42.337,-7.291 -56.419,-21.872c-14.082,-14.582 -21.123,-34.657 -21.123,-60.223l0,-117.555Z" style="fill:#8400ff;fill-rule:nonzero;"/>
            <path d="M1841.65,91.538l38.954,0l1.829,-61.089l37.856,-0l0,61.089l75.713,0l0,37.579l-75.713,0l0,75.351c0,17.601 2.987,30.031 8.961,37.29c5.975,7.258 17.374,10.888 34.199,10.888c8.535,-0 19.63,-0.642 33.285,-1.927l-0,34.688c-12.436,3.212 -26.152,4.754 -41.149,4.625c-27.676,0 -47.092,-6.488 -58.247,-19.464c-11.156,-12.976 -16.734,-33.853 -16.734,-62.631l-0,-78.82l-38.954,0l0,-37.579Z" style="fill:#8400ff;fill-rule:nonzero;"/>
            <path d="M2030.75,91.538l39.685,0l0,195.796l-39.685,0l-0,-195.796Zm1.463,-77.855c4.755,-4.882 10.881,-7.323 18.38,-7.323c7.498,-0 13.594,2.441 18.288,7.323c4.694,4.882 7.041,11.113 7.041,18.693c-0,7.837 -2.347,14.26 -7.041,19.271c-4.694,5.01 -10.79,7.516 -18.288,7.516c-7.499,-0 -13.625,-2.506 -18.38,-7.516c-4.755,-5.011 -7.132,-11.434 -7.132,-19.271c-0,-7.58 2.377,-13.811 7.132,-18.693Z" style="fill:#8400ff;fill-rule:nonzero;"/>
            <path d="M2136.28,116.398c18.654,-19.142 42.977,-28.714 72.97,-28.714c29.992,0 54.224,9.539 72.695,28.618c18.471,19.078 27.707,43.489 27.707,73.231c-0,29.742 -9.236,54.216 -27.707,73.423c-18.471,19.207 -42.703,28.811 -72.695,28.811c-29.993,-0 -54.286,-9.604 -72.879,-28.811c-18.593,-19.207 -27.889,-43.681 -27.889,-73.423c-0,-29.742 9.266,-54.12 27.798,-73.135Zm28.895,118.904c10.729,11.819 25.451,17.729 44.166,17.729c18.715,0 33.376,-5.91 43.983,-17.729c10.607,-11.82 15.911,-27.108 15.911,-45.866c-0,-18.372 -5.365,-33.564 -16.094,-45.576c-10.729,-12.013 -25.359,-18.019 -43.891,-18.019c-18.776,0 -33.468,5.942 -44.075,17.826c-10.607,11.884 -15.91,27.173 -15.91,45.866c-0,18.693 5.303,33.949 15.91,45.769Z" style="fill:#8400ff;fill-rule:nonzero;"/>
            <path d="M2347.88,91.538l38.223,0l0.731,24.089l4.023,0c13.29,-18.628 34.138,-27.943 62.546,-27.943c23.775,0 42.703,7.291 56.785,21.873c14.082,14.582 21.123,34.656 21.123,60.223l-0,117.554l-39.686,0l0,-105.028c0,-17.858 -4.237,-31.605 -12.71,-41.241c-8.474,-9.635 -21.062,-14.453 -37.765,-14.453c-16.459,0 -29.505,5.267 -39.137,15.802c-9.632,10.535 -14.447,24.346 -14.447,41.434l-0,103.486l-39.686,0l0,-195.796Z" style="fill:#8400ff;fill-rule:nonzero;"/>
            <path d="M2654.03,88.07c24.263,-0 46.026,2.376 65.289,7.13l0,32.761c-21.458,-2.955 -42.185,-4.432 -62.18,-4.432c-18.775,-0 -31.973,1.509 -39.594,4.528c-7.62,3.02 -11.43,9.026 -11.43,18.019c0,7.837 2.866,13.393 8.596,16.67c5.73,3.276 15.728,5.62 29.992,7.034l24.689,2.312c21.459,1.799 37.308,7.259 47.55,16.381c10.241,9.121 15.362,23.382 15.362,42.782c-0,39.956 -29.688,59.933 -89.064,59.933c-26.7,0 -51.206,-2.762 -73.518,-8.286l-0,-32.761c22.19,3.468 45.537,5.203 70.044,5.203c19.019,-0 32.461,-1.574 40.325,-4.722c7.864,-3.147 11.796,-9.346 11.796,-18.596c-0,-8.48 -2.865,-14.422 -8.596,-17.826c-5.73,-3.405 -15.971,-5.749 -30.724,-7.034l-25.054,-2.313c-41.454,-3.982 -62.18,-23.446 -62.18,-58.392c-0,-38.928 29.566,-58.391 88.697,-58.391Z" style="fill:#8400ff;fill-rule:nonzero;"/>
        </g>
        <path d="M272.131,7.178l91.678,-0c80.277,-0 120.287,32.496 120.223,97.488c-0.052,52.148 -27.102,82.91 -81.305,92.286l0,4.817c7.065,11.817 14.161,19.491 21.29,23.023c7.128,3.533 18.078,5.299 32.849,5.299c7.835,-0 17.854,-0.257 30.056,-0.771l-0,53.561c-11.303,4.752 -26.46,7.128 -45.469,7.128c-29.414,0 -52.084,-5.844 -68.011,-17.532c-13.898,-10.2 -26.819,-29.544 -38.761,-58.034c-0.006,-0.014 -0.011,-0.028 -0.017,-0.042c-1.08,-2.577 -2.152,-5.228 -3.215,-7.954l0.431,-1.482c5.511,-17.22 8.267,-36.01 8.267,-56.372c-0,-1.225 -0.01,-2.446 -0.03,-3.66l18.49,-0c19.266,-0 33.235,-3.115 41.904,-9.344c8.67,-6.23 13.005,-16.313 13.005,-30.249c0,-13.936 -4.335,-23.922 -13.005,-29.959c-8.669,-6.037 -22.638,-9.055 -41.904,-9.055l-32.996,-0c-0.084,-0.154 -0.168,-0.308 -0.252,-0.461c-7.515,-14.282 -17.212,-27.308 -29.091,-39.078c-7.457,-7.388 -15.503,-13.925 -24.137,-19.609Z" style="fill:#8400ff;fill-rule:nonzero;"/>
    </g>
</svg>

